<svg width="151" height="51" viewBox="0 0 151 51" fill="none" xmlns="http://www.w3.org/2000/svg">
<path d="M5.71295 49.0163C5.4833 49.3866 5.15217 49.6833 4.7589 49.871C4.27832 50.0984 3.75058 50.2084 3.21916 50.1918C2.42016 50.2238 1.63295 49.991 0.979925 49.5295C0.69147 49.3129 0.455532 49.0341 0.289644 48.7138C0.123756 48.3935 0.0321827 48.0399 0.0217296 47.6794H2.09127C2.10712 47.9513 2.22283 48.2077 2.41618 48.3995C2.61011 48.578 2.8668 48.6725 3.13017 48.6624C3.34768 48.6742 3.56108 48.5999 3.72413 48.4554C3.79766 48.3864 3.85576 48.3025 3.89463 48.2095C3.93351 48.1164 3.95228 48.0161 3.94971 47.9153C3.95181 47.8202 3.93455 47.7256 3.89898 47.6374C3.8634 47.5492 3.81025 47.4691 3.74275 47.402C3.60026 47.2589 3.43166 47.1444 3.24607 47.0647C3.03911 46.9778 2.77421 46.8743 2.41825 46.7522C1.99366 46.6098 1.57887 46.4397 1.17653 46.2431C0.845163 46.0707 0.560973 45.8199 0.348716 45.5125C0.118164 45.1345 -0.00224853 44.6996 0.00104225 44.2568C0.00433303 43.814 0.131196 43.3809 0.367342 43.0063C0.620663 42.6475 0.970982 42.3682 1.37728 42.2013C1.84418 42.0052 2.34647 41.9072 2.85285 41.9136C3.75103 41.9136 4.46502 42.1268 4.99482 42.5531C5.25831 42.7679 5.47409 43.0353 5.62839 43.3382C5.78269 43.6411 5.87211 43.9728 5.89093 44.3122H3.77794C3.75394 44.0739 3.65127 43.8504 3.48613 43.6769C3.40191 43.597 3.30236 43.5351 3.1935 43.4949C3.08464 43.4547 2.96875 43.4371 2.85285 43.443C2.65224 43.4341 2.45542 43.4997 2.30029 43.6272C2.22799 43.6954 2.17188 43.779 2.13608 43.8718C2.10027 43.9645 2.08566 44.0641 2.09334 44.1632C2.09116 44.2524 2.10668 44.3411 2.13901 44.4242C2.17133 44.5073 2.21982 44.5832 2.28166 44.6475C2.41568 44.7877 2.57696 44.8989 2.75559 44.9745C2.94598 45.0572 3.21916 45.1649 3.5834 45.2932C4.01776 45.435 4.44109 45.6086 4.84996 45.8126C5.18615 45.9929 5.47536 46.2495 5.69433 46.5618C5.94554 46.9388 6.07021 47.3861 6.05029 47.8387C6.05002 48.255 5.93317 48.663 5.71295 49.0163Z" fill="#33C36D"/>
<path d="M25.5653 43.9167C25.2202 43.3011 24.7127 42.7921 24.098 42.4453C23.4644 42.0952 22.7524 41.9116 22.0285 41.9116C21.3046 41.9116 20.5926 42.0952 19.959 42.4453C19.3435 42.7931 18.8341 43.3017 18.4855 43.9167C18.1297 44.5712 17.9434 45.3044 17.9434 46.0494C17.9434 46.7943 18.1297 47.5275 18.4855 48.182C18.8333 48.7998 19.3426 49.3113 19.959 49.6617C20.5904 50.0092 21.2995 50.1914 22.0202 50.1914C22.741 50.1914 23.45 50.0092 24.0815 49.6617C24.697 49.3103 25.2062 48.799 25.555 48.182C25.9095 47.5271 26.0951 46.7941 26.0951 46.0494C26.0951 45.3046 25.9095 44.5717 25.555 43.9167H25.5653Z" fill="#33C36D"/>
<path d="M41.0413 48.6165H43.6448V50.1107H39.0918V42.0396H41.0434L41.0413 48.6165Z" fill="#33C36D"/>
<path d="M56.9606 42.0396V46.6981C56.9332 47.1341 57.0623 47.5657 57.3249 47.915C57.6054 48.1858 57.9801 48.3372 58.37 48.3372C58.7599 48.3372 59.1346 48.1858 59.4151 47.915C59.6755 47.5633 59.8024 47.1305 59.7731 46.6939V42.0396H61.7268V46.6981C61.7487 47.3668 61.5953 48.0296 61.2818 48.6207C61.0018 49.1251 60.5783 49.5349 60.0649 49.7982C59.5243 50.0658 58.9276 50.2006 58.3245 50.1915C57.7301 50.2035 57.1418 50.0699 56.6109 49.8024C56.1112 49.5393 55.7044 49.1289 55.4457 48.6269C55.1504 48.0281 55.0082 47.3653 55.0318 46.6981V42.0396H56.9606Z" fill="#33C36D"/>
<path d="M79.4222 42.0396V43.5917H77.2305V50.1107H75.2665V43.5917H73.0977V42.0396H79.4222Z" fill="#33C36D"/>
<path d="M93.898 42.0396V50.1107H91.9443V42.0396H93.898Z" fill="#33C36D"/>
<path d="M113.119 43.9167C112.774 43.3011 112.266 42.7921 111.652 42.4453C111.018 42.0952 110.306 41.9116 109.582 41.9116C108.858 41.9116 108.146 42.0952 107.513 42.4453C106.897 42.7931 106.388 43.3017 106.039 43.9167C105.683 44.5712 105.497 45.3044 105.497 46.0494C105.497 46.7943 105.683 47.5275 106.039 48.182C106.387 48.7998 106.896 49.3113 107.513 49.6617C108.144 50.0092 108.852 50.1914 109.573 50.1914C110.293 50.1914 111.002 50.0092 111.633 49.6617C112.249 49.3113 112.759 48.7998 113.107 48.182C113.46 47.5268 113.646 46.7939 113.646 46.0494C113.646 45.3048 113.46 44.5719 113.107 43.9167H113.119Z" fill="#33C36D"/>
<path d="M132.433 50.1107H130.481L127.215 45.1563V50.1107H125.262V42.0396H127.215L130.481 47.0395V42.0396H132.433V50.1107Z" fill="#33C36D"/>
<path d="M150.06 49.0161C149.829 49.3871 149.496 49.6838 149.102 49.8709C148.62 50.0992 148.09 50.2091 147.558 50.1916C146.759 50.224 145.973 49.9912 145.32 49.5294C145.032 49.3129 144.795 49.0342 144.629 48.7139C144.463 48.3936 144.371 48.0399 144.36 47.6792H146.43C146.445 47.9516 146.562 48.2084 146.757 48.3994C146.95 48.5776 147.206 48.6721 147.469 48.6622C147.686 48.6741 147.9 48.5997 148.063 48.4553C148.136 48.3846 148.193 48.2991 148.23 48.2045C148.268 48.1099 148.285 48.0085 148.28 47.9069C148.282 47.8118 148.264 47.7174 148.229 47.6292C148.193 47.5411 148.14 47.461 148.073 47.3936C147.929 47.2509 147.76 47.1365 147.574 47.0563C147.367 46.9694 147.102 46.8659 146.746 46.7438C146.322 46.6017 145.907 46.4316 145.505 46.2347C145.174 46.0617 144.89 45.8111 144.677 45.5041C144.446 45.1261 144.326 44.6912 144.329 44.2484C144.332 43.8056 144.459 43.3725 144.695 42.9979C144.949 42.6391 145.299 42.3598 145.705 42.1929C146.174 41.9991 146.678 41.904 147.185 41.9135C148.083 41.9135 148.797 42.1267 149.325 42.553C149.589 42.7674 149.805 43.0347 149.959 43.3377C150.114 43.6406 150.203 43.9726 150.221 44.3121H148.125C148.101 44.0742 147.999 43.851 147.835 43.6767C147.751 43.5972 147.651 43.5355 147.542 43.4953C147.433 43.4551 147.318 43.4373 147.202 43.4429C147 43.4336 146.803 43.4992 146.647 43.6271C146.575 43.6953 146.519 43.7789 146.483 43.8716C146.447 43.9644 146.432 44.064 146.44 44.1631C146.438 44.2522 146.453 44.3409 146.486 44.4241C146.518 44.5072 146.567 44.5831 146.628 44.6473C146.762 44.7875 146.924 44.8988 147.102 44.9743C147.293 45.0571 147.566 45.1647 147.93 45.293C148.365 45.4353 148.789 45.6089 149.199 45.8125C149.535 45.9927 149.824 46.2493 150.043 46.5617C150.294 46.939 150.418 47.3862 150.397 47.8386C150.397 48.2549 150.28 48.6628 150.06 49.0161Z" fill="#33C36D"/>
<path d="M144.408 4.3389C141.989 2.32985 139.048 1.05134 135.928 0.652942C132.809 0.25455 129.641 0.752761 126.794 2.08928C123.948 3.4258 121.541 5.54535 119.855 8.19993C118.169 10.8545 117.274 13.9343 117.274 17.079V33.6353H123.253V17.079C123.253 14.2737 124.368 11.5833 126.351 9.59962C128.335 7.61597 131.025 6.50157 133.831 6.50157C136.636 6.50157 139.326 7.61597 141.31 9.59962C143.294 11.5833 144.408 14.2737 144.408 17.079V33.6353H150.387V17.079C150.389 14.6464 149.854 12.2433 148.821 10.0411C147.787 7.83895 146.28 5.89194 144.408 4.3389Z" fill="white"/>
<path d="M95.8978 0.549561L95.1424 1.51189C93.8413 3.16329 92.7519 4.97091 91.8994 6.89269C93.4719 6.4554 95.1242 6.38765 96.7272 6.69473C98.3302 7.00181 99.8405 7.6754 101.14 8.66287C102.44 9.65034 103.493 10.9249 104.218 12.3871C104.944 13.8492 105.321 15.4592 105.321 17.0914C105.321 18.7235 104.944 20.3335 104.218 21.7957C103.493 23.2578 102.44 24.5324 101.14 25.5199C99.8405 26.5073 98.3302 27.1809 96.7272 27.488C95.1242 27.7951 93.4719 27.7273 91.8994 27.29C92.7519 29.2118 93.8413 31.0194 95.1424 32.6708L95.8978 33.6332C100.08 33.337 103.995 31.4667 106.853 28.399C109.711 25.3314 111.3 21.2945 111.3 17.1017C111.3 12.9089 109.711 8.87202 106.853 5.80437C103.995 2.73673 100.08 0.866396 95.8978 0.570256V0.549561Z" fill="white"/>
<path d="M88.1851 17.079C88.1737 23.0833 90.1868 28.9161 93.899 33.6353C89.6534 33.4229 85.6518 31.5868 82.7219 28.5067C79.7921 25.4266 78.1582 21.3383 78.1582 17.0873C78.1582 12.8363 79.7921 8.74799 82.7219 5.66792C85.6518 2.58785 89.6534 0.751709 93.899 0.539307C90.1903 5.25403 88.1774 11.0804 88.1851 17.079Z" fill="#33C36D"/>
<path d="M66.2245 4.3389C63.8053 2.32985 60.8639 1.05134 57.7446 0.652942C54.6253 0.25455 51.457 0.752761 48.6105 2.08928C45.764 3.4258 43.357 5.54535 41.6711 8.19993C39.9852 10.8545 39.0902 13.9343 39.0908 17.079V33.6353H45.0697V17.079C45.0697 14.2737 46.1841 11.5833 48.1678 9.59962C50.1514 7.61597 52.8418 6.50157 55.6471 6.50157C58.4524 6.50157 61.1428 7.61597 63.1265 9.59962C65.1101 11.5833 66.2245 14.2737 66.2245 17.079V33.6353H72.2034V17.079C72.2057 14.6463 71.671 12.2431 70.6375 10.0408C69.604 7.83861 68.0972 5.89165 66.2245 4.3389Z" fill="white"/>
<path d="M15.7285 8.15711H31.4569V2.17822H15.7285C11.557 2.17822 7.55642 3.83532 4.60676 6.78499C1.6571 9.73465 0 13.7352 0 17.9067C0 22.0781 1.6571 26.0787 4.60676 29.0284C7.55642 31.9781 11.557 33.6352 15.7285 33.6352H31.4569V27.6563H15.7285C13.6663 27.654 11.6578 26.9985 9.99137 25.7838C8.3249 24.5691 7.08612 22.8576 6.45281 20.8951H25.0041V14.9183H6.45281C7.08612 12.9557 8.3249 11.2443 9.99137 10.0296C11.6578 8.81489 13.6663 8.15936 15.7285 8.15711Z" fill="white"/>
</svg>
